<mxfile host="app.diagrams.net" modified="2023-11-07T21:10:11.822Z" agent="Mozilla/5.0 (Windows NT 10.0; Win64; x64) AppleWebKit/537.36 (KHTML, like Gecko) Chrome/118.0.0.0 Safari/537.36 OPR/104.0.0.0" etag="BSWCCcU2fmzReFvPrxUD" version="22.0.8" type="device">
  <diagram name="Page-1" id="Sbs0IW_ofMHIo77w96EM">
    <mxGraphModel dx="1138" dy="651" grid="0" gridSize="10" guides="1" tooltips="1" connect="1" arrows="1" fold="1" page="1" pageScale="1" pageWidth="850" pageHeight="1100" math="0" shadow="0">
      <root>
        <mxCell id="0" />
        <mxCell id="1" parent="0" />
        <mxCell id="rrxHBZVGt7Xu8-j6ISsB-1" value="Plot Summaries" style="text;html=1;strokeColor=none;fillColor=none;align=center;verticalAlign=middle;whiteSpace=wrap;rounded=0;fontStyle=1" parent="1" vertex="1">
          <mxGeometry x="190" y="100" width="100" height="30" as="geometry" />
        </mxCell>
        <mxCell id="rrxHBZVGt7Xu8-j6ISsB-2" value="Train Main" style="text;html=1;strokeColor=none;fillColor=none;align=center;verticalAlign=middle;whiteSpace=wrap;rounded=0;fontSize=14;" parent="1" vertex="1">
          <mxGeometry x="200" y="50" width="80" height="30" as="geometry" />
        </mxCell>
        <mxCell id="rrxHBZVGt7Xu8-j6ISsB-3" value="Movies metadata" style="text;html=1;strokeColor=none;fillColor=none;align=center;verticalAlign=middle;whiteSpace=wrap;rounded=0;fontStyle=1" parent="1" vertex="1">
          <mxGeometry x="190" y="180" width="100" height="30" as="geometry" />
        </mxCell>
        <mxCell id="rrxHBZVGt7Xu8-j6ISsB-4" value="Character metadata" style="text;html=1;strokeColor=none;fillColor=none;align=center;verticalAlign=middle;whiteSpace=wrap;rounded=0;fontStyle=1" parent="1" vertex="1">
          <mxGeometry x="180" y="290" width="120" height="30" as="geometry" />
        </mxCell>
        <mxCell id="rrxHBZVGt7Xu8-j6ISsB-5" value="Test" style="text;html=1;strokeColor=none;fillColor=none;align=center;verticalAlign=middle;whiteSpace=wrap;rounded=0;fontSize=14;" parent="1" vertex="1">
          <mxGeometry x="570" y="50" width="60" height="30" as="geometry" />
        </mxCell>
        <mxCell id="rrxHBZVGt7Xu8-j6ISsB-6" value="tvtropes clusters" style="text;html=1;strokeColor=none;fillColor=none;align=center;verticalAlign=middle;whiteSpace=wrap;rounded=0;fontStyle=1" parent="1" vertex="1">
          <mxGeometry x="520" y="100" width="140" height="30" as="geometry" />
        </mxCell>
        <mxCell id="rrxHBZVGt7Xu8-j6ISsB-7" value="names clusters" style="text;html=1;strokeColor=none;fillColor=none;align=center;verticalAlign=middle;whiteSpace=wrap;rounded=0;fontStyle=1" parent="1" vertex="1">
          <mxGeometry x="545" y="210" width="90" height="30" as="geometry" />
        </mxCell>
        <mxCell id="rrxHBZVGt7Xu8-j6ISsB-8" value="&lt;span style=&quot;background-color: rgb(151, 208, 119);&quot;&gt;Wikipedia Movie ID&lt;/span&gt;&amp;nbsp; &amp;nbsp; Plot summary" style="text;html=1;strokeColor=none;fillColor=none;align=center;verticalAlign=middle;whiteSpace=wrap;rounded=0;" parent="1" vertex="1">
          <mxGeometry x="150" y="130" width="200" height="30" as="geometry" />
        </mxCell>
        <mxCell id="E25G4tv7lGzhbvOOqOv_-1" value="&lt;p&gt;&lt;span style=&quot;background-color: rgb(151, 208, 119);&quot;&gt;Wikipedia Movie ID&lt;/span&gt;&amp;nbsp; &amp;nbsp; &lt;span style=&quot;background-color: rgb(248, 206, 204);&quot;&gt;Freebase Movie ID&lt;/span&gt;&amp;nbsp; &amp;nbsp; Movie name&amp;nbsp; &amp;nbsp; Movie date&amp;nbsp; &amp;nbsp; Movie revenue&amp;nbsp; &amp;nbsp; Movie runtime&amp;nbsp; &amp;nbsp; Movie languages&amp;nbsp; &amp;nbsp; Movie countries&amp;nbsp; &amp;nbsp; Movie genres&lt;/p&gt;" style="text;html=1;strokeColor=none;fillColor=none;align=center;verticalAlign=middle;whiteSpace=wrap;rounded=0;" parent="1" vertex="1">
          <mxGeometry x="100" y="210" width="280" height="70" as="geometry" />
        </mxCell>
        <mxCell id="E25G4tv7lGzhbvOOqOv_-4" value="&lt;p&gt;&lt;font style=&quot;font-size: 12px;&quot;&gt;&lt;span style=&quot;text-align: start;&quot;&gt;&lt;span style=&quot;background-color: rgb(151, 208, 119);&quot;&gt;Wikipedia movie ID&lt;/span&gt;&amp;nbsp; &amp;nbsp;&amp;nbsp;&lt;/span&gt;&lt;span style=&quot;text-align: start;&quot;&gt;&lt;span style=&quot;background-color: rgb(248, 206, 204);&quot;&gt;Freebase movie ID&lt;/span&gt;&amp;nbsp; &amp;nbsp;&amp;nbsp;&lt;/span&gt;&lt;span style=&quot;text-align: start;&quot;&gt;Movie release date&amp;nbsp; &amp;nbsp;&amp;nbsp;&lt;/span&gt;&lt;span style=&quot;text-align: start;&quot;&gt;Character name&amp;nbsp; &amp;nbsp;&amp;nbsp;&lt;/span&gt;&lt;span style=&quot;text-align: start;&quot;&gt;Actor date of birth&amp;nbsp; &amp;nbsp;&amp;nbsp;&lt;/span&gt;&lt;span style=&quot;text-align: start;&quot;&gt;Actor gender&amp;nbsp; &amp;nbsp;&amp;nbsp;&lt;/span&gt;&lt;span style=&quot;text-align: start;&quot;&gt;Actor height&amp;nbsp; &amp;nbsp; A&lt;/span&gt;&lt;span style=&quot;text-align: start;&quot;&gt;ctor ethnicity (Freebase ID)&amp;nbsp; &amp;nbsp;&amp;nbsp;&lt;/span&gt;&lt;span style=&quot;text-align: start;&quot;&gt;Actor name&amp;nbsp; &amp;nbsp;&amp;nbsp;&lt;/span&gt;&lt;span style=&quot;text-align: start;&quot;&gt;Actor age at movie release&lt;br&gt;&lt;/span&gt;&lt;/font&gt;&lt;font style=&quot;font-size: 12px;&quot;&gt;&lt;span style=&quot;text-align: start;&quot;&gt;&lt;span style=&quot;background-color: rgb(169, 196, 235);&quot;&gt;Freebase character/actor map ID&lt;/span&gt;&amp;nbsp; &amp;nbsp;&amp;nbsp;&lt;/span&gt;&lt;span style=&quot;text-align: start;&quot;&gt;Freebase character ID&amp;nbsp; &amp;nbsp;&amp;nbsp;&lt;br&gt;&lt;/span&gt;&lt;/font&gt;&lt;font style=&quot;font-size: 12px;&quot;&gt;&lt;span style=&quot;text-align: start;&quot;&gt;Freebase actor ID&lt;/span&gt;&lt;/font&gt;&lt;/p&gt;" style="text;html=1;strokeColor=none;fillColor=none;align=center;verticalAlign=middle;whiteSpace=wrap;rounded=0;" parent="1" vertex="1">
          <mxGeometry x="45" y="320" width="390" height="90" as="geometry" />
        </mxCell>
        <mxCell id="E25G4tv7lGzhbvOOqOv_-5" value="Tokens" style="text;html=1;strokeColor=none;fillColor=none;align=center;verticalAlign=middle;whiteSpace=wrap;rounded=0;fontStyle=1" parent="1" vertex="1">
          <mxGeometry x="210" y="453" width="60" height="30" as="geometry" />
        </mxCell>
        <mxCell id="E25G4tv7lGzhbvOOqOv_-6" value="Character name&amp;nbsp; &amp;nbsp;&amp;nbsp;&lt;span style=&quot;background-color: rgb(169, 196, 235);&quot;&gt;Freebase character/actor map ID&lt;/span&gt;" style="text;html=1;strokeColor=none;fillColor=none;align=center;verticalAlign=middle;whiteSpace=wrap;rounded=0;" parent="1" vertex="1">
          <mxGeometry x="460" y="240" width="280" height="30" as="geometry" />
        </mxCell>
        <mxCell id="E25G4tv7lGzhbvOOqOv_-7" value="&lt;p style=&quot;box-sizing: border-box; overflow: auto; padding: 1px 0px; margin-top: 0px; margin-bottom: 0px; line-height: inherit; word-break: break-all; overflow-wrap: break-word; border: 0px; border-radius: 0px; vertical-align: baseline;&quot;&gt;&lt;font style=&quot;font-size: 12px;&quot; face=&quot;Helvetica&quot;&gt;Character type&amp;nbsp; &amp;nbsp; C&lt;/font&gt;&lt;font style=&quot;font-size: 12px;&quot; face=&quot;Helvetica&quot;&gt;haracter name&lt;br&gt;&lt;/font&gt;&lt;font style=&quot;font-size: 12px;&quot; face=&quot;Helvetica&quot;&gt;Movie name&amp;nbsp; &amp;nbsp; &lt;span style=&quot;background-color: rgb(169, 196, 235);&quot;&gt;Freebase character/actor map ID&lt;/span&gt;&lt;/font&gt;&lt;/p&gt;&lt;p style=&quot;box-sizing: border-box; overflow: auto; padding: 1px 0px; margin-top: 0px; margin-bottom: 0px; line-height: inherit; word-break: break-all; overflow-wrap: break-word; border: 0px; border-radius: 0px; vertical-align: baseline;&quot;&gt;&lt;font style=&quot;font-size: 12px;&quot; face=&quot;Helvetica&quot;&gt;Actor name&lt;/font&gt;&lt;/p&gt;" style="text;html=1;strokeColor=none;fillColor=none;align=center;verticalAlign=middle;whiteSpace=wrap;rounded=0;" parent="1" vertex="1">
          <mxGeometry x="455" y="125" width="270" height="55" as="geometry" />
        </mxCell>
        <mxCell id="E25G4tv7lGzhbvOOqOv_-8" value="&lt;p style=&quot;box-sizing: border-box; overflow: auto; padding: 1px 0px; margin-top: 0px; margin-bottom: 0px; line-height: inherit; word-break: break-all; overflow-wrap: break-word; border: 0px; border-radius: 0px; vertical-align: baseline;&quot;&gt;&lt;span style=&quot;background-color: rgb(151, 208, 119);&quot;&gt;Wikipedia movie id&lt;/span&gt;&amp;nbsp; &amp;nbsp; Sentence id&amp;nbsp; &amp;nbsp; Dependency class&lt;br&gt;Dependency type&amp;nbsp; &amp;nbsp; Governor id&amp;nbsp; &amp;nbsp; Governor word&lt;br&gt;Dependent id&amp;nbsp; &amp;nbsp; Dependent word&lt;/p&gt;" style="text;html=1;strokeColor=none;fillColor=none;align=center;verticalAlign=middle;whiteSpace=wrap;rounded=0;" parent="1" vertex="1">
          <mxGeometry x="87.5" y="573" width="305" height="70" as="geometry" />
        </mxCell>
        <mxCell id="E25G4tv7lGzhbvOOqOv_-9" value="Dependencies" style="text;html=1;strokeColor=none;fillColor=none;align=center;verticalAlign=middle;whiteSpace=wrap;rounded=0;fontStyle=1" parent="1" vertex="1">
          <mxGeometry x="195" y="543" width="90" height="30" as="geometry" />
        </mxCell>
        <mxCell id="E25G4tv7lGzhbvOOqOv_-10" value="&lt;span style=&quot;font-size: 14px;&quot;&gt;Train secondary&lt;/span&gt;" style="text;html=1;strokeColor=none;fillColor=none;align=center;verticalAlign=middle;whiteSpace=wrap;rounded=0;fontStyle=0;fontSize=14;" parent="1" vertex="1">
          <mxGeometry x="185" y="420" width="110" height="30" as="geometry" />
        </mxCell>
        <mxCell id="E25G4tv7lGzhbvOOqOv_-11" value="&lt;pre style=&quot;box-sizing: border-box; overflow: auto; padding: 1px 0px; margin-top: 0px; margin-bottom: 0px; line-height: inherit; word-break: break-all; overflow-wrap: break-word; border: 0px; border-radius: 0px; vertical-align: baseline;&quot;&gt;&lt;font face=&quot;Helvetica&quot;&gt;&lt;span style=&quot;background-color: rgb(151, 208, 119);&quot;&gt;Wikipedia movie id&lt;/span&gt;    Sentence id    tokenid&lt;br&gt; word   lemma   COB    COE    POS   NER&lt;/font&gt;&lt;/pre&gt;" style="text;html=1;strokeColor=none;fillColor=none;align=center;verticalAlign=middle;whiteSpace=wrap;rounded=0;" parent="1" vertex="1">
          <mxGeometry x="115" y="483" width="250" height="40" as="geometry" />
        </mxCell>
        <mxCell id="E25G4tv7lGzhbvOOqOv_-12" value="&lt;b&gt;Parses&lt;/b&gt;" style="text;html=1;strokeColor=none;fillColor=none;align=center;verticalAlign=middle;whiteSpace=wrap;rounded=0;" parent="1" vertex="1">
          <mxGeometry x="112" y="660" width="60" height="30" as="geometry" />
        </mxCell>
        <mxCell id="E25G4tv7lGzhbvOOqOv_-13" value="&lt;span style=&quot;background-color: rgb(151, 208, 119);&quot;&gt;Wikipedia movid id&lt;/span&gt;&lt;br&gt;Sentence id&lt;br&gt;Parse" style="text;html=1;strokeColor=none;fillColor=none;align=center;verticalAlign=middle;whiteSpace=wrap;rounded=0;" parent="1" vertex="1">
          <mxGeometry x="77" y="690" width="136" height="60" as="geometry" />
        </mxCell>
        <mxCell id="QO_co4DEQPsN9OdDWTWU-1" value="&lt;b&gt;Coref&lt;/b&gt;" style="text;html=1;strokeColor=none;fillColor=none;align=center;verticalAlign=middle;whiteSpace=wrap;rounded=0;" vertex="1" parent="1">
          <mxGeometry x="300" y="660" width="60" height="30" as="geometry" />
        </mxCell>
        <mxCell id="QO_co4DEQPsN9OdDWTWU-2" value="&lt;pre style=&quot;box-sizing: border-box; overflow: auto; padding: 1px 0px; margin-top: 0px; margin-bottom: 0px; line-height: inherit; word-break: break-all; overflow-wrap: break-word; border: 0px; border-radius: 0px; vertical-align: baseline;&quot;&gt;&lt;font style=&quot;font-size: 12px;&quot; face=&quot;Helvetica&quot;&gt;&lt;span style=&quot;background-color: rgb(151, 208, 119);&quot;&gt;Wikipedia movie id&lt;/span&gt;    Sentence id&lt;br&gt;start    end    head&lt;br&gt;representative&lt;/font&gt;&lt;/pre&gt;" style="text;html=1;strokeColor=none;fillColor=none;align=center;verticalAlign=middle;whiteSpace=wrap;rounded=0;" vertex="1" parent="1">
          <mxGeometry x="238.13" y="690" width="183.75" height="60" as="geometry" />
        </mxCell>
      </root>
    </mxGraphModel>
  </diagram>
</mxfile>
